<mxfile host="app.diagrams.net" agent="Mozilla/5.0 (Windows NT 10.0; Win64; x64) AppleWebKit/537.36 (KHTML, like Gecko) Chrome/133.0.0.0 Safari/537.36" version="26.0.16">
  <diagram name="Page-1" id="5f0bae14-7c28-e335-631c-24af17079c00">
    <mxGraphModel dx="1040" dy="585" grid="1" gridSize="10" guides="1" tooltips="1" connect="1" arrows="1" fold="1" page="1" pageScale="1" pageWidth="1100" pageHeight="850" background="none" math="0" shadow="0">
      <root>
        <mxCell id="0" />
        <mxCell id="1" parent="0" />
        <mxCell id="rU_0oJ3ShRVZ9Ei-454_-3" value="メイン基板" style="swimlane;whiteSpace=wrap;html=1;" vertex="1" parent="1">
          <mxGeometry x="300" y="180" width="270" height="200" as="geometry">
            <mxRectangle x="380" y="180" width="100" height="30" as="alternateBounds" />
          </mxGeometry>
        </mxCell>
        <mxCell id="rU_0oJ3ShRVZ9Ei-454_-4" value="電源基板" style="swimlane;whiteSpace=wrap;html=1;" vertex="1" parent="1">
          <mxGeometry x="600" y="170" width="270" height="200" as="geometry">
            <mxRectangle x="380" y="180" width="100" height="30" as="alternateBounds" />
          </mxGeometry>
        </mxCell>
        <mxCell id="rU_0oJ3ShRVZ9Ei-454_-5" value="正面基板" style="swimlane;whiteSpace=wrap;html=1;" vertex="1" parent="1">
          <mxGeometry x="10" y="180" width="270" height="260" as="geometry">
            <mxRectangle x="380" y="180" width="100" height="30" as="alternateBounds" />
          </mxGeometry>
        </mxCell>
        <mxCell id="rU_0oJ3ShRVZ9Ei-454_-6" value="XIAO RP2040" style="swimlane;" vertex="1" parent="rU_0oJ3ShRVZ9Ei-454_-5">
          <mxGeometry x="140" y="40" width="110" height="100" as="geometry" />
        </mxCell>
        <mxCell id="rU_0oJ3ShRVZ9Ei-454_-8" value="VL53L0X" style="swimlane;" vertex="1" parent="rU_0oJ3ShRVZ9Ei-454_-5">
          <mxGeometry x="10" y="70" width="110" height="100" as="geometry" />
        </mxCell>
      </root>
    </mxGraphModel>
  </diagram>
</mxfile>
